<svg width="52" height="40" viewBox="0 0 52 40" fill="none" xmlns="http://www.w3.org/2000/svg">
<path d="M1 0H51V40H1V0Z" fill="#F1B31C"/>
<path d="M1 2.10526V7.36841L51 31.5789V26.3158L1 2.10526Z" fill="white" stroke="white" stroke-miterlimit="10"/>
<path d="M1 8.42105V13.6842L51 37.8947V32.6316L1 8.42105Z" fill="black" stroke="black" stroke-miterlimit="10"/>
<path d="M30.4581 18.8579C30.7683 19.8181 30.8917 20.8635 30.8172 21.901C30.7428 22.9385 30.4728 23.9359 30.0314 24.8041C29.59 25.6724 28.9908 26.3846 28.2874 26.8773C27.5839 27.37 26.7979 27.6278 25.9996 27.6278C25.2013 27.6278 24.4153 27.37 23.7118 26.8773C23.0084 26.3846 22.4092 25.6724 21.9678 24.8041C21.5264 23.9359 21.2564 22.9385 21.182 21.901C21.1075 20.8635 21.2309 19.8181 21.5411 18.8579M26 11.5789V24.7368" stroke="#D22F27" stroke-width="2" stroke-linecap="round" stroke-linejoin="round"/>
<path d="M30.8386 27.6316C27.8435 30.94 24.2717 31.0147 21.1612 27.6316M17.9354 26.0526V20L16.3225 15.5263M34.0644 26.0526V20.5263L35.6773 15.5263M28.7298 15.36C26.8935 14.4989 24.9701 14.5674 23.1943 15.3284" stroke="#D22F27" stroke-width="2" stroke-linecap="round" stroke-linejoin="round"/>
</svg>
