<svg width="24" height="24" xmlns="http://www.w3.org/2000/svg">
<defs>
<symbol id="icon-spinner" viewBox="0 0 24 24">
    <path d="M12.75 3V6C12.75 6.19891 12.671 6.38968 12.5303 6.53033C12.3897 6.67098 12.1989 6.75 12 6.75C11.8011 6.75 11.6103 6.67098 11.4697 6.53033C11.329 6.38968 11.25 6.19891 11.25 6V3C11.25 2.80109 11.329 2.61032 11.4697 2.46967C11.6103 2.32902 11.8011 2.25 12 2.25C12.1989 2.25 12.3897 2.32902 12.5303 2.46967C12.671 2.61032 12.75 2.80109 12.75 3ZM16.2422 8.50781C16.3408 8.50777 16.4384 8.48829 16.5294 8.45048C16.6205 8.41268 16.7032 8.3573 16.7728 8.2875L18.8944 6.16687C19.0351 6.02614 19.1142 5.83527 19.1142 5.63625C19.1142 5.43723 19.0351 5.24636 18.8944 5.10562C18.7536 4.96489 18.5628 4.88583 18.3638 4.88583C18.1647 4.88583 17.9739 4.96489 17.8331 5.10562L15.7125 7.22719C15.6075 7.33202 15.536 7.46563 15.507 7.6111C15.478 7.75658 15.4928 7.90739 15.5495 8.04447C15.6062 8.18155 15.7023 8.29874 15.8256 8.38121C15.9489 8.46369 16.0938 8.50774 16.2422 8.50781ZM21 11.25H18C17.8011 11.25 17.6103 11.329 17.4697 11.4697C17.329 11.6103 17.25 11.8011 17.25 12C17.25 12.1989 17.329 12.3897 17.4697 12.5303C17.6103 12.671 17.8011 12.75 18 12.75H21C21.1989 12.75 21.3897 12.671 21.5303 12.5303C21.671 12.3897 21.75 12.1989 21.75 12C21.75 11.8011 21.671 11.6103 21.5303 11.4697C21.3897 11.329 21.1989 11.25 21 11.25ZM16.7728 15.7125C16.631 15.5778 16.4422 15.5038 16.2466 15.5063C16.0511 15.5088 15.8642 15.5876 15.7259 15.7259C15.5876 15.8642 15.5088 16.0511 15.5063 16.2466C15.5038 16.4422 15.5778 16.631 15.7125 16.7728L17.8331 18.8944C17.9739 19.0351 18.1647 19.1142 18.3638 19.1142C18.5628 19.1142 18.7536 19.0351 18.8944 18.8944C19.0351 18.7536 19.1142 18.5628 19.1142 18.3638C19.1142 18.1647 19.0351 17.9739 18.8944 17.8331L16.7728 15.7125ZM12 17.25C11.8011 17.25 11.6103 17.329 11.4697 17.4697C11.329 17.6103 11.25 17.8011 11.25 18V21C11.25 21.1989 11.329 21.3897 11.4697 21.5303C11.6103 21.671 11.8011 21.75 12 21.75C12.1989 21.75 12.3897 21.671 12.5303 21.5303C12.671 21.3897 12.75 21.1989 12.75 21V18C12.75 17.8011 12.671 17.6103 12.5303 17.4697C12.3897 17.329 12.1989 17.25 12 17.25ZM7.22719 15.7125L5.10562 17.8331C4.96489 17.9739 4.88583 18.1647 4.88583 18.3638C4.88583 18.5628 4.96489 18.7536 5.10562 18.8944C5.24636 19.0351 5.43723 19.1142 5.63625 19.1142C5.83527 19.1142 6.02614 19.0351 6.16687 18.8944L8.2875 16.7728C8.42222 16.631 8.49621 16.4422 8.4937 16.2466C8.4912 16.0511 8.4124 15.8642 8.2741 15.7259C8.1358 15.5876 7.94894 15.5088 7.75337 15.5063C7.5578 15.5038 7.36898 15.5778 7.22719 15.7125ZM6.75 12C6.75 11.8011 6.67098 11.6103 6.53033 11.4697C6.38968 11.329 6.19891 11.25 6 11.25H3C2.80109 11.25 2.61032 11.329 2.46967 11.4697C2.32902 11.6103 2.25 11.8011 2.25 12C2.25 12.1989 2.32902 12.3897 2.46967 12.5303C2.61032 12.671 2.80109 12.75 3 12.75H6C6.19891 12.75 6.38968 12.671 6.53033 12.5303C6.67098 12.3897 6.75 12.1989 6.75 12ZM6.16687 5.10562C6.02614 4.96489 5.83527 4.88583 5.63625 4.88583C5.43723 4.88583 5.24636 4.96489 5.10562 5.10562C4.96489 5.24636 4.88583 5.43723 4.88583 5.63625C4.88583 5.7348 4.90524 5.83238 4.94296 5.92342C4.98067 6.01447 5.03594 6.09719 5.10562 6.16687L7.22719 8.2875C7.36898 8.42222 7.5578 8.49621 7.75337 8.4937C7.94894 8.4912 8.1358 8.4124 8.2741 8.2741C8.4124 8.1358 8.4912 7.94894 8.4937 7.75337C8.49621 7.5578 8.42222 7.36898 8.2875 7.22719L6.16687 5.10562Z" fill="black"/>
</symbol>
<symbol id="icon-bookmarks" viewBox="0 0 24 24">
    <path d="M3 23V7C3 6.45 3.19567 5.97933 3.587 5.588C3.979 5.196 4.45 5 5 5H15C15.55 5 16.021 5.196 16.413 5.588C16.8043 5.97933 17 6.45 17 7V23L10 20L3 23ZM19 20V3H6V1H19C19.55 1 20.021 1.19567 20.413 1.587C20.8043 1.979 21 2.45 21 3V20H19Z" fill="#14B624"/>
</symbol>
<symbol id="icon-bookmark-outline" fill="none" viewBox="0 0 24 24">
    <path d="M19 21L12 16L5 21V5C5 4.46957 5.21071 3.96086 5.58579 3.58579C5.96086 3.21071 6.46957 3 7 3H17C17.5304 3 18.0391 3.21071 18.4142 3.58579C18.7893 3.96086 19 4.46957 19 5V21Z" stroke="#14B624" stroke-width="2" stroke-linecap="round" stroke-linejoin="round"/>
</symbol>
<symbol id="icon-bookmark-fill" viewBox="0 0 24 24">
    <path d="M14 8V11.4171C12.7263 10.861 11.2737 10.861 10 11.4171V8H14Z" stroke="#14B624" stroke-width="10" stroke-linecap="round" stroke-linejoin="round"/>
</symbol>
<symbol id="icon-loc" viewBox="0 0 24 24">
    <path d="M12 12C12.55 12 13.021 11.804 13.413 11.412C13.8043 11.0207 14 10.55 14 10C14 9.45 13.8043 8.979 13.413 8.587C13.021 8.19567 12.55 8 12 8C11.45 8 10.9793 8.19567 10.588 8.587C10.196 8.979 10 9.45 10 10C10 10.55 10.196 11.0207 10.588 11.412C10.9793 11.804 11.45 12 12 12ZM12 22C9.31667 19.7167 7.31267 17.5957 5.988 15.637C4.66267 13.679 4 11.8667 4 10.2C4 7.7 4.80433 5.70833 6.413 4.225C8.021 2.74167 9.88333 2 12 2C14.1167 2 15.979 2.74167 17.587 4.225C19.1957 5.70833 20 7.7 20 10.2C20 11.8667 19.3377 13.679 18.013 15.637C16.6877 17.5957 14.6833 19.7167 12 22Z" fill="#14B624"/>
</symbol>
<symbol id="icon-arrow-left" fill="none" viewBox="0 0 24 24">
    <path d="M19 12H5" stroke="black" stroke-width="2" stroke-linecap="round" stroke-linejoin="round"/>
    <path d="M12 19L5 12L12 5" stroke="black" stroke-width="2" stroke-linecap="round" stroke-linejoin="round"/>
</symbol>
</defs>
</svg>